<svg width="24" height="24" viewBox="0 0 24 24" fill="none" xmlns="http://www.w3.org/2000/svg">
<path d="M13.8299 18.9998C13.6805 19.0003 13.5329 18.9673 13.3979 18.9033C13.263 18.8393 13.144 18.7458 13.0499 18.6298L8.21992 12.6298C8.07284 12.4509 7.99243 12.2264 7.99243 11.9948C7.99243 11.7632 8.07284 11.5387 8.21992 11.3598L13.2199 5.35979C13.3897 5.15557 13.6336 5.02715 13.898 5.00277C14.1624 4.97839 14.4257 5.06005 14.6299 5.22979C14.8341 5.39953 14.9626 5.64344 14.9869 5.90786C15.0113 6.17229 14.9297 6.43557 14.7599 6.63979L10.2899 11.9998L14.6099 17.3598C14.7322 17.5066 14.8099 17.6853 14.8338 17.8749C14.8576 18.0644 14.8267 18.2568 14.7447 18.4294C14.6626 18.6019 14.5328 18.7473 14.3707 18.8484C14.2086 18.9495 14.021 19.002 13.8299 18.9998Z" fill="white"/>
</svg>
